# Blender v2.77 (sub 0) OBJ File: 'cubo.blend'
# www.blender.org
o Cube
v 1.936332 0.076823 -0.318320
v 1.936332 0.076823 1.681680
v -0.063668 0.076823 1.681679
v -0.063667 0.076823 -0.318321
v 1.936333 2.076823 -0.318320
v 1.936332 2.076823 1.681680
v -0.063668 2.076823 1.681679
v -0.063668 2.076823 -0.318320
v -0.063668 0.076823 1.681679
v -0.063668 2.076823 1.681679
vt 0.7500 0.5000
vt 0.9999 0.2500
vt 0.9999 0.5000
vt 0.2500 0.2500
vt 0.5000 0.5000
vt 0.2500 0.5000
vt 0.9999 0.7500
vt 0.7500 0.2500
vt 0.5000 0.2500
vt 0.7500 0.0001
vt 0.0001 0.5000
vt 0.7500 0.7500
vt 0.5000 0.0001
vt 0.0001 0.2500
vn 0.0000 -1.0000 0.0000
vn 0.0000 1.0000 0.0000
vn 1.0000 -0.0000 0.0000
vn 0.0000 -0.0000 1.0000
vn -1.0000 -0.0000 -0.0000
vn 0.0000 0.0000 -1.0000
s off
f 2/1/1 4/2/1 1/3/1
f 8/4/2 6/5/2 5/6/2
f 5/7/3 2/1/3 1/3/3
f 6/5/4 3/8/4 2/1/4
f 7/9/5 4/10/5 3/8/5
f 1/11/6 8/4/6 5/6/6
f 2/1/1 3/8/1 4/2/1
f 8/4/2 7/9/2 6/5/2
f 5/7/3 6/12/3 2/1/3
f 6/5/4 7/9/4 3/8/4
f 7/9/5 8/13/5 4/10/5
f 1/11/6 4/14/6 8/4/6
l 9 10
